<?xml version="1.0" standalone="no"?>
<!DOCTYPE svg PUBLIC "-//W3C//DTD SVG 20010904//EN"
 "http://www.w3.org/TR/2001/REC-SVG-20010904/DTD/svg10.dtd">
<svg version="1.0" xmlns="http://www.w3.org/2000/svg"
 width="323.000000pt" height="233.000000pt" viewBox="0 0 323.000000 233.000000"
 preserveAspectRatio="xMidYMid meet">

<g transform="translate(0.000000,233.000000) scale(0.100000,-0.100000)"
fill="#000000" stroke="none">
<path d="M1505 1607 c-237 -38 -464 -167 -614 -350 -89 -109 -79 -131 14 -30
136 148 270 225 475 275 74 17 297 17 380 -1 201 -44 377 -156 497 -315 57
-77 93 -148 129 -256 26 -78 28 -97 28 -245 l1 -160 37 -18 c32 -16 41 -17 65
-5 46 22 53 49 53 218 0 126 -4 169 -21 230 -61 222 -200 406 -399 528 -187
115 -431 164 -645 129z"/>
<path d="M1511 1383 c-111 -21 -265 -99 -339 -170 -21 -20 2 -15 24 5 32 29
115 69 194 93 105 33 264 33 367 1 310 -96 507 -417 451 -738 -8 -49 -22 -110
-31 -137 -14 -43 -14 -49 2 -68 22 -27 70 -29 85 -3 21 38 44 112 62 208 17
95 17 102 0 205 -54 321 -261 542 -568 605 -92 19 -148 19 -247 -1z"/>
<path d="M543 990 c-97 -20 -187 -90 -230 -178 -23 -47 -27 -68 -27 -141 0
-110 25 -172 98 -239 67 -61 128 -82 232 -82 70 0 89 4 142 31 34 16 73 45 88
62 28 33 74 123 74 145 0 9 -25 12 -93 12 -92 0 -94 0 -115 -30 -44 -59 -141
-64 -199 -11 -131 119 26 335 171 236 33 -22 47 -25 131 -25 110 0 115 5 66
81 -69 109 -208 166 -338 139z"/>
<path d="M1192 982 c-64 -23 -94 -50 -124 -111 -22 -44 -23 -57 -23 -276 l0
-230 85 0 85 0 5 211 c5 220 10 244 51 244 10 0 21 -6 26 -12 4 -7 10 -110 13
-228 l5 -215 85 0 85 0 0 245 0 245 -27 45 c-49 84 -162 118 -266 82z"/>
<path d="M1737 966 c-50 -18 -67 -34 -88 -81 -16 -34 -19 -67 -19 -213 0 -124
4 -182 14 -205 31 -76 118 -111 256 -105 l75 3 0 80 0 80 -77 5 c-83 5 -104
16 -93 49 6 19 14 21 73 21 37 0 73 4 80 9 9 5 12 26 10 67 l-3 59 -65 3 c-58
3 -90 14 -90 31 1 26 25 36 92 41 l73 5 3 60 c6 106 7 105 -106 105 -55 -1
-113 -7 -135 -14z"/>
</g>
</svg>
