<?xml version="1.0" standalone="no"?>
<!DOCTYPE svg PUBLIC "-//W3C//DTD SVG 20010904//EN"
 "http://www.w3.org/TR/2001/REC-SVG-20010904/DTD/svg10.dtd">
<svg version="1.0" xmlns="http://www.w3.org/2000/svg"
 width="344.000000pt" height="297.000000pt" viewBox="0 0 344.000000 297.000000"
 preserveAspectRatio="xMidYMid meet">
<metadata>
Created by potrace 1.16, written by Peter Selinger 2001-2019
</metadata>
<g transform="translate(0.000000,297.000000) scale(0.100000,-0.100000)"
fill="#000000" stroke="none">
<path d="M2060 2064 c-14 -7 -47 -14 -75 -14 -28 0 -59 -7 -69 -15 -11 -8 -32
-15 -48 -15 -28 0 -37 -13 -18 -25 20 -12 9 -31 -23 -43 -19 -7 -39 -23 -45
-37 l-11 -24 34 16 c31 15 36 15 59 0 22 -15 27 -15 40 -2 20 21 22 20 23 -20
1 -34 0 -35 -37 -35 -22 0 -42 5 -45 10 -13 21 -71 11 -97 -17 -36 -39 -43
-69 -23 -100 15 -22 22 -24 53 -19 21 3 42 2 47 -2 18 -12 33 -78 28 -124 -5
-48 13 -83 38 -73 18 7 59 79 59 104 0 9 9 33 20 54 12 21 18 47 15 57 -4 12
2 23 16 33 11 9 18 20 15 26 -4 5 -2 12 3 15 15 10 38 -4 50 -30 9 -21 13 -23
31 -12 15 10 24 10 39 1 16 -10 19 -7 28 20 13 44 -7 140 -36 170 -17 19 -21
34 -19 68 3 49 -9 57 -52 33z"/>
<path d="M1543 2047 c-6 -6 -13 -23 -16 -37 -4 -14 -22 -46 -40 -70 -19 -25
-37 -55 -40 -68 -7 -30 13 -92 30 -92 8 0 11 5 8 11 -9 14 3 59 16 59 13 0
129 100 129 111 0 5 -6 8 -12 7 -25 -5 -13 37 15 50 15 7 27 17 27 22 0 5 -12
8 -27 7 -16 -1 -40 2 -54 6 -17 4 -30 2 -36 -6z"/>
<path d="M1513 1743 c-20 -7 -15 -84 7 -120 10 -18 26 -57 34 -88 16 -62 23
-75 30 -54 2 8 16 49 30 92 14 42 26 79 26 81 0 9 -96 96 -105 95 -5 0 -16 -3
-22 -6z"/>
<path d="M1646 1333 c-27 -14 -27 -15 -9 -28 64 -45 331 -44 397 1 19 13 18
14 -15 28 -29 12 -53 12 -167 0 -115 -12 -135 -12 -155 0 -19 13 -26 13 -51
-1z"/>
<path d="M2502 779 c-94 -36 -136 -142 -98 -244 19 -49 66 -95 98 -95 19 0 18
2 -6 21 -78 61 -83 211 -10 285 32 32 39 34 100 34 77 0 106 -16 135 -72 23
-45 27 -128 9 -182 -6 -19 -25 -47 -41 -61 -38 -31 -11 -35 32 -4 35 25 54 60
62 114 14 99 -32 179 -121 210 -59 20 -95 18 -160 -6z"/>
<path d="M1150 781 c0 -6 24 -11 53 -13 l52 -3 5 -165 c4 -138 7 -165 20 -165
13 0 16 27 20 165 l5 165 53 3 c28 2 52 7 52 13 0 5 -55 9 -130 9 -75 0 -130
-4 -130 -9z"/>
<path d="M1779 786 c-2 -2 -4 -82 -3 -178 1 -142 3 -173 15 -173 10 0 15 20
19 80 4 66 8 80 22 80 15 0 137 -139 138 -157 0 -11 40 -10 40 0 0 5 -25 41
-55 81 -30 39 -52 77 -49 84 2 7 18 18 35 26 17 7 37 28 46 46 21 45 4 89 -39
104 -50 18 -66 13 -31 -9 18 -11 35 -31 39 -46 9 -36 -22 -93 -53 -99 -13 -3
-34 -7 -47 -10 -39 -8 -49 16 -44 100 4 66 3 75 -12 75 -9 0 -19 -2 -21 -4z"/>
<path d="M770 746 c0 -28 5 -38 27 -48 15 -7 76 -67 135 -133 60 -66 113 -121
118 -123 6 -2 10 14 10 35 0 32 -4 40 -27 51 -16 7 -77 66 -138 132 -60 66
-113 120 -117 120 -5 0 -8 -16 -8 -34z"/>
</g>
</svg>
