<?xml version="1.0" encoding="UTF-8" standalone="no"?>
<!-- Created with Inkscape (http://www.inkscape.org/) -->

<svg
   xmlns:dc="http://purl.org/dc/elements/1.1/"
   xmlns:cc="http://creativecommons.org/ns#"
   xmlns:rdf="http://www.w3.org/1999/02/22-rdf-syntax-ns#"
   xmlns:svg="http://www.w3.org/2000/svg"
   xmlns="http://www.w3.org/2000/svg"
   xmlns:sodipodi="http://sodipodi.sourceforge.net/DTD/sodipodi-0.dtd"
   xmlns:inkscape="http://www.inkscape.org/namespaces/inkscape"
   version="1.1"
   width="500"
   height="325"
   id="svg3260"
   inkscape:version="0.48.2 r9819"
   sodipodi:docname="SRI2.svg">
  <sodipodi:namedview
     pagecolor="#ffffff"
     bordercolor="#666666"
     borderopacity="1"
     objecttolerance="10"
     gridtolerance="10"
     guidetolerance="10"
     inkscape:pageopacity="0"
     inkscape:pageshadow="2"
     inkscape:window-width="1280"
     inkscape:window-height="974"
     id="namedview43"
     showgrid="false"
     inkscape:zoom="0.72615385"
     inkscape:cx="225.90042"
     inkscape:cy="162.5"
     inkscape:window-x="-8"
     inkscape:window-y="-8"
     inkscape:window-maximized="1"
     inkscape:current-layer="svg3260" />
  <defs
     id="defs3262" />
  <metadata
     id="metadata3265">
    <rdf:RDF>
      <cc:Work
         rdf:about="">
        <dc:format>image/svg+xml</dc:format>
        <dc:type
           rdf:resource="http://purl.org/dc/dcmitype/StillImage" />
        <dc:title></dc:title>
        <cc:license
           rdf:resource="http://creativecommons.org/licenses/publicdomain/" />
        <dc:date>26-05-2012</dc:date>
      </cc:Work>
      <cc:License
         rdf:about="http://creativecommons.org/licenses/publicdomain/">
        <cc:permits
           rdf:resource="http://creativecommons.org/ns#Reproduction" />
        <cc:permits
           rdf:resource="http://creativecommons.org/ns#Distribution" />
        <cc:permits
           rdf:resource="http://creativecommons.org/ns#DerivativeWorks" />
      </cc:License>
    </rdf:RDF>
  </metadata>
  <g
     transform="translate(0,-727.36215)"
     id="layer1">
    <g
       transform="translate(-105.05587,174.75638)"
       id="g3378">
      <path
         d="m 192.64631,801.55137 c -23.31591,-2.6578 -39.53356,-6.61887 -51.42857,-12.56113 -7.25488,-3.62424 -7.07914,-3.14218 -4.18092,-11.46854 2.91023,-8.36088 11.27924,-29.38825 14.48934,-36.40488 1.21319,-2.65178 2.58831,-4.82142 3.05582,-4.82142 0.46751,0 5.04183,1.65087 10.16516,3.66862 17.44535,6.87059 29.40249,9.3034 46.11345,9.3823 11.60873,0.0548 17.26865,-0.88087 22.8143,-3.77155 5.82882,-3.03828 9.55452,-8.70357 9.62553,-14.63652 0.10254,-8.56709 -6.40476,-14.91835 -27.08268,-26.4333 -31.33741,-17.4509 -44.15869,-29.71893 -51.13017,-48.92384 -1.52763,-4.20828 -1.68316,-5.77944 -1.66162,-16.78571 0.0199,-10.16294 0.273,-13.04245 1.55238,-17.66004 8.04489,-29.03601 31.84396,-49.74858 65.88226,-57.33801 11.58696,-2.58351 19.97063,-3.43896 33.57143,-3.42555 13.53724,0.0133 22.76101,0.86578 33.92857,3.13558 9.16865,1.86352 20.0864,5.47843 22.28182,7.3776 l 1.71299,1.48184 -1.77134,5.41229 c -2.54549,7.7777 -13.24302,36.98795 -14.62881,39.94486 -0.71721,1.53032 -1.76748,2.58506 -2.70778,2.71931 -0.84487,0.12062 -5.98647,-1.09552 -11.42578,-2.70252 -12.75973,-3.76976 -20.63523,-5.0133 -31.67538,-5.00152 -10.13427,0.0108 -16.85146,1.19265 -22.3224,3.92742 -6.99352,3.49586 -9.82046,7.28957 -9.82046,13.17889 0,7.43398 4.64066,11.7004 26.30974,24.18807 24.0192,13.84203 35.34284,22.18185 42.7248,31.46668 9.16705,11.53009 13.40222,26.87422 11.75281,42.58081 -1.94415,18.51326 -7.54315,31.39316 -19.04929,43.82086 -12.09025,13.05858 -29.96995,22.31198 -52.45782,27.14883 -10.33765,2.2235 -34.9651,3.60312 -44.63738,2.50057 l 0,0 z"
         id="path3322"
         style="fill:#045aa0;fill-opacity:1" />
      <path
         d="m 305.14631,800.84687 c 0,-2.01596 2.7206,-17.43413 7.86129,-44.55147 2.71833,-14.33929 10.88981,-57.57143 18.15885,-96.07143 15.66684,-82.97848 17.24153,-90.84944 18.58636,-92.9019 2.85022,-4.34999 40.00348,-7.99246 73.96493,-7.25146 38.55732,0.84128 57.28722,6.57918 73.3933,22.48401 7.285,7.19398 11.55295,14.02351 14.52628,23.24483 1.88849,5.85686 2.57064,18.97582 1.40307,26.98385 -3.39625,23.29404 -16.05951,39.7977 -39.81989,51.89613 -5.21744,2.65664 -9.48996,5.04246 -9.49451,5.30182 -0.004,0.25937 1.35782,2.1364 3.02746,4.17117 11.97766,14.59708 12.93547,18.0105 18.74026,66.78583 1.40263,11.78572 3.22533,25.53902 4.05044,30.56289 0.82511,5.02387 1.27147,9.36316 0.99191,9.64286 -0.27955,0.2797 -10.99027,0.62245 -23.80162,0.76168 -22.64477,0.24609 -35.45473,-0.18263 -37.17223,-1.24411 -1.21973,-0.75383 -3.98854,-18.18977 -6.51892,-41.05141 -1.21138,-10.94474 -2.70934,-22.35545 -3.32879,-25.35714 -3.03284,-14.69629 -10.3929,-21.03042 -25.55559,-21.99334 -3.58193,-0.22747 -7.63222,-0.11667 -9.00065,0.24623 -2.1491,0.56993 -2.60875,1.09194 -3.374,3.83179 -0.48727,1.74459 -3.94352,19.40412 -7.68058,39.24341 -3.73705,19.83929 -7.36161,38.32143 -8.05457,41.07143 l -1.25995,5 -29.82142,0.18641 c -27.31109,0.17072 -29.82143,0.0872 -29.82143,-0.99208 z M 422.99836,663.42763 c 11.15456,-3.16608 19.35143,-9.44036 23.47318,-17.96752 5.35342,-11.07527 4.1148,-22.72461 -3.08873,-29.04939 -6.23046,-5.47041 -12.76054,-7.25818 -26.51157,-7.25818 -15.25069,0 -14.1627,-0.56636 -16.27873,8.47398 -3.0483,13.02326 -9.14542,45.16274 -8.75884,46.17014 0.57289,1.49292 2.83944,1.71135 14.74121,1.42057 8.51503,-0.20803 12.30722,-0.62125 16.42348,-1.7896 l 0,0 z"
         id="path3324"
         style="fill:#045aa0;fill-opacity:1" />
      <path
         d="m 495.86059,801.10783 c 0,-1.98481 31.56824,-169.46803 32.57946,-172.84815 0.34826,-1.1641 2.37088,-1.24925 29.43296,-1.23906 15.98245,0.006 29.50983,0.29636 30.06084,0.64522 0.7631,0.48313 0.89497,1.62947 0.55339,4.81049 -0.39651,3.69253 -26.88009,144.52418 -30.37614,161.53112 -0.7508,3.65235 -1.59075,6.86663 -1.86656,7.14286 -0.2758,0.27623 -13.97502,0.59889 -30.4427,0.71704 -24.91713,0.17877 -29.94125,0.0513 -29.94125,-0.75952 z"
         id="path3326"
         style="fill:#045aa0;fill-opacity:1" />
      <path
         d="m 155.71635,862.76115 c -2.42109,-0.73119 -2.33135,-1.99266 1.54457,-21.71108 2.73547,-13.91644 3.35189,-16.14612 4.65684,-16.84451 1.17324,-0.62789 4.59125,-0.59933 5.36745,0.0448 0.78159,0.64866 0.55901,2.91546 -1.25946,12.82653 -2.76252,15.05637 -4.78717,23.61379 -5.88585,24.87733 -0.866,0.99594 -2.69366,1.32931 -4.42355,0.80688 z"
         id="path3328"
         style="fill:#045aa0;fill-opacity:1" />
      <path
         d="m 175.10546,862.81441 c -7.23453,-1.76124 -9.91296,-11.76822 -5.25775,-19.64367 1.66699,-2.82014 5.32405,-6.27556 7.88038,-7.44589 2.56717,-1.17528 6.12598,-1.45556 8.09268,-0.63735 2.25886,0.93977 4.0157,2.31169 5.14655,4.01897 2.01688,3.04493 1.7368,6.18063 -0.77655,8.69398 -1.82131,1.82131 -4.39169,3.00858 -8.13143,3.75593 -3.88819,0.77703 -5.34825,1.37807 -5.34127,2.19876 0.0147,1.72635 1.35761,2.24638 6.46406,2.50313 4.81099,0.2419 5.31619,0.47824 5.31619,2.48703 0,2.00646 -1.72489,3.48047 -4.67376,3.994 -2.57136,0.44778 -7.03052,0.48619 -8.7191,0.0751 z m 7.40554,-18.11578 c 1.12399,-0.56585 1.63416,-2.02087 0.98347,-2.8049 -0.69366,-0.83581 -2.87033,-0.64952 -4.37753,0.37465 -0.7331,0.49815 -1.33291,1.04751 -1.33291,1.22079 0,0.17328 -0.0971,0.56824 -0.2159,0.87768 -0.4681,1.21987 2.74973,1.43586 4.94287,0.33178 l 0,0 z"
         id="path3330"
         style="fill:#045aa0;fill-opacity:1" />
      <path
         d="m 117.18214,862.62563 c -2.83416,-1.23266 -2.94292,-5.22868 -0.21213,-7.79424 2.1478,-2.01785 4.81994,-1.41398 6.81353,1.53976 1.42394,2.10974 0.44969,4.49945 -2.43538,5.97364 -1.80396,0.92178 -2.57312,0.97363 -4.16602,0.28084 z"
         id="path3332"
         style="fill:#045aa0;fill-opacity:1" />
      <path
         d="m 130.0131,862.67507 c -1.38971,-0.7718 -2.02499,-2.0462 -2.02499,-4.06224 0,-2.3462 0.85928,-3.60027 3.10877,-4.53703 2.06512,-0.85999 3.16275,-0.46913 4.81215,1.71359 1.36648,1.80831 1.45672,2.98793 0.35714,4.66882 -1.47468,2.25433 -4.35008,3.27372 -6.25307,2.21686 l 0,0 z"
         id="path3334"
         style="fill:#045aa0;fill-opacity:1" />
      <path
         d="m 142.38877,862.14691 c -1.16405,-1.04008 -1.21188,-1.18372 -1.21188,-3.63955 0,-2.5114 0.0245,-2.57916 1.37947,-3.82093 1.20625,-1.10545 1.55171,-1.24109 2.75113,-1.08021 1.83443,0.24604 3.2538,1.31758 4.26155,3.21722 l 0.83163,1.56764 -0.86189,1.54343 c -1.11573,1.99801 -2.36174,2.8921 -4.34136,3.11523 -1.40435,0.1583 -1.74282,0.0495 -2.80865,-0.90283 z"
         id="path3336"
         style="fill:#045aa0;fill-opacity:1" />
      <path
         d="m 204.47681,862.24105 c -0.82559,-0.76553 -0.97849,-1.19847 -0.97849,-2.77059 0,-3.06168 4.44242,-27.52994 5.92294,-32.62274 0.74588,-2.56573 1.43441,-2.98507 4.90128,-2.98507 l 2.80815,0 -0.20096,2.58929 c -0.11053,1.4241 -0.30082,4.01279 -0.42287,5.75264 l -0.22191,3.16337 1.73168,-0.20908 c 4.99417,-0.60298 5.85396,-0.63233 7.04141,-0.24044 1.56331,0.51594 3.27581,2.41565 3.78819,4.20231 0.74811,2.60867 0.83328,6.91168 0.22112,11.17048 -1.32331,9.20623 -2.08108,11.09975 -4.91143,12.27276 -2.84831,1.18045 -4.22903,0.16142 -4.22903,-3.12118 0,-0.841 0.41084,-4.47951 0.91299,-8.08557 1.23919,-8.8991 0.90417,-10.43875 -2.09144,-9.61162 -1.68542,0.46537 -3.85136,2.94927 -4.85211,5.56441 -0.4294,1.12207 -1.18203,3.89627 -1.67252,6.16489 -0.99732,4.61281 -2.06504,7.23236 -3.54254,8.69131 -1.29287,1.27663 -2.87795,1.30484 -4.20446,0.0748 z"
         id="path3338"
         style="fill:#045aa0;fill-opacity:1" />
      <path
         d="m 238.53956,862.63364 c -4.30943,-1.40276 -6.50169,-6.70657 -5.24919,-12.69956 2.03148,-9.72022 10.24979,-15.81578 20.57686,-15.26195 4.47423,0.23995 6.4168,1.40755 6.4168,3.85688 0,2.52231 -3.54227,21.82459 -4.21853,22.98732 -0.84067,1.44541 -2.31296,1.58564 -5.66164,0.53927 l -2.55874,-0.79955 -1.36983,0.81896 c -1.72714,1.03257 -5.63468,1.30764 -7.93573,0.55863 l 0,0 z m 6.97096,-6.59906 c 2.27394,-1.38658 4.16638,-5.01911 5.32284,-10.21718 0.55144,-2.47863 0.5526,-2.74787 0.0153,-3.56785 -1.13709,-1.7354 -3.25419,-1.01601 -6.21117,2.11055 -2.40898,2.54714 -2.92492,3.81496 -2.92492,7.18739 0,4.50306 1.28397,6.02002 3.79792,4.48709 z"
         id="path3340"
         style="fill:#045aa0;fill-opacity:1" />
      <path
         d="m 270.10546,862.81441 c -4.2231,-1.02811 -7.27139,-5.13944 -7.6025,-10.25374 -0.53842,-8.31647 4.81684,-15.15155 13.65968,-17.43425 3.77407,-0.97425 6.59719,-0.64668 8.31782,0.96513 1.87847,1.75967 0.20709,4.21141 -3.32623,4.87926 -4.13375,0.78133 -6.0022,1.50557 -7.22433,2.80026 -2.70629,2.86695 -4.03065,7.58695 -2.78026,9.90879 0.85269,1.58335 2.65348,2.34828 6.63439,2.81809 l 3.39286,0.40041 0.10556,1.80615 c 0.1356,2.32012 -0.70714,3.4815 -2.93302,4.04198 -1.75017,0.4407 -6.55029,0.48025 -8.24397,0.0679 z"
         id="path3342"
         style="fill:#045aa0;fill-opacity:1" />
      <path
         d="m 292.6892,862.78159 c -4.71204,-1.18658 -7.16668,-4.39666 -7.63934,-9.99037 -0.5494,-6.50199 3.59424,-14.14924 9.0524,-16.70655 1.86677,-0.87463 2.46823,-0.97155 6.0032,-0.96737 3.32516,0.004 4.14799,0.12202 5.35714,0.76881 2.63422,1.40909 4.10715,3.75735 4.10715,6.54797 0,2.00561 -0.74662,3.60376 -2.50514,5.36228 -1.93111,1.93111 -4.35743,3.02068 -8.73019,3.92041 -3.9576,0.81431 -4.56129,1.15258 -4.40773,2.46981 0.1612,1.38282 1.53589,1.82721 6.41038,2.0723 3.631,0.18256 4.46085,0.33195 5.03532,0.90641 1.3202,1.3202 0.0338,3.86565 -2.52919,5.00472 -1.8957,0.8425 -7.82001,1.19933 -10.154,0.61158 l 0,0 z m 7.15227,-18.09819 c 1.44188,-0.67931 1.93371,-2.13057 0.96268,-2.8406 -1.25127,-0.91495 -3.75362,-0.46093 -5.14871,0.93416 -0.90291,0.90291 -0.9616,2.39696 -0.10355,2.636 0.90361,0.25172 2.94293,-0.0951 4.28958,-0.72956 z"
         id="path3344"
         style="fill:#045aa0;fill-opacity:1" />
      <path
         d="m 326.76462,862.58693 c -3.98675,-1.0725 -5.10902,-2.75023 -5.08602,-7.60336 0.0243,-5.13156 3.88653,-26.0485 5.37899,-29.13153 0.90589,-1.87132 1.81396,-2.26114 4.79752,-2.0595 l 2.1068,0.14239 -0.24457,5.72061 -0.24457,5.72061 1.53063,-0.21128 c 6.57965,-0.90822 7.48413,-0.73107 10.24605,2.0068 2.46169,2.44025 2.97471,3.49656 3.16291,6.51241 0.40179,6.43862 -3.68997,14.35682 -9.03876,17.49142 -3.23069,1.8933 -8.58835,2.49304 -12.60898,1.41143 l 0,0 z m 8.17122,-7.12279 c 3.68547,-2.32653 5.8422,-7.84118 4.4709,-11.43187 -0.95527,-2.50135 -2.88795,-3.03884 -5.22255,-1.45245 -3.10839,2.11221 -5.75162,10.57179 -4.05848,12.98908 0.7842,1.1196 2.94518,1.07253 4.81013,-0.10476 z"
         id="path3346"
         style="fill:#045aa0;fill-opacity:1" />
      <path
         d="m 351.44475,862.43799 c -1.07406,-0.65486 -1.16072,-0.84875 -1.16072,-2.59697 0,-3.12428 2.48822,-16.40955 3.97482,-21.22258 0.8399,-2.7193 1.90942,-3.68436 4.08314,-3.68436 3.14241,0 3.67552,2.46499 2.28787,10.57874 -1.04697,6.12179 -3.12469,14.46071 -3.93502,15.79318 -1.15309,1.89612 -3.25392,2.34908 -5.25009,1.13199 z"
         id="path3348"
         style="fill:#045aa0;fill-opacity:1" />
      <path
         d="m 358.27979,832.45738 c -1.36141,-0.57928 -2.28147,-2.1348 -2.28147,-3.85718 0,-1.33738 0.19593,-1.79062 1.21428,-2.80898 0.99547,-0.99546 1.4846,-1.21428 2.71429,-1.21428 2.04518,0 3.92857,1.78915 3.92857,3.73202 0,1.35466 -0.67055,2.99068 -1.51203,3.68904 -0.6806,0.56485 -3.15768,0.84488 -4.06364,0.45938 l 0,0 z"
         id="path3350"
         style="fill:#045aa0;fill-opacity:1" />
      <path
         d="m 371.89117,862.66572 c -3.46227,-0.89325 -6.13963,-2.83029 -7.23115,-5.23164 -0.84997,-1.86994 -0.71714,-8.37994 0.23327,-11.43276 1.5424,-4.95434 5.78141,-9.47938 10.17473,-10.86125 5.60161,-1.76192 11.7318,0.89602 13.06723,5.66571 0.51632,1.84412 0.2551,3.3944 -0.91494,5.42994 -1.71684,2.9868 -4.35167,4.51548 -9.50463,5.51438 -4.02064,0.7794 -4.93403,1.15687 -4.92618,2.03583 0.015,1.68337 1.36909,2.20778 6.33492,2.45341 4.56577,0.22584 5.80247,0.66128 5.80247,2.04301 0,1.27922 -1.46089,3.18216 -3.04043,3.96045 -1.77449,0.87434 -7.33383,1.10956 -9.99529,0.42292 z m 6.48345,-17.92603 c 2.18577,-0.88241 1.85903,-3.37704 -0.44232,-3.37704 -2.07693,0 -4.43398,1.66211 -4.43398,3.12669 0,1.11347 2.42935,1.2382 4.8763,0.25035 z"
         id="path3352"
         style="fill:#045aa0;fill-opacity:1" />
      <path
         d="m 390.90903,862.60459 c -0.56552,-0.31696 -1.00536,-0.8865 -1.03687,-1.34263 -0.23024,-3.33271 0.79487,-10.30008 3.0004,-20.39292 l 1.16147,-5.31504 3.92857,0.0441 c 2.16072,0.0242 5.76105,-0.1759 8.00073,-0.44475 4.87883,-0.58564 5.77779,-0.39683 7.86551,1.65206 1.98259,1.94571 2.52662,3.26545 2.52662,6.12918 0,2.52313 -1.36674,10.51118 -2.57249,15.03524 -0.95759,3.59292 -2.32175,5.17857 -4.45519,5.17857 -1.89353,0 -2.8563,-0.75728 -3.05501,-2.40296 -0.0894,-0.74087 0.21079,-4.71675 0.6672,-8.83528 0.89602,-8.08551 0.78932,-9.93286 -0.5992,-10.37356 -1.14953,-0.36485 -3.27743,0.92537 -4.47061,2.71067 -1.41251,2.11348 -2.76279,5.99856 -3.69282,10.62512 -1.20646,6.00176 -2.29004,7.73056 -5.08768,8.11712 -0.70778,0.0978 -1.60061,-0.0598 -2.18063,-0.38488 z"
         id="path3354"
         style="fill:#045aa0;fill-opacity:1" />
      <path
         d="m 434.14982,862.80617 c -2.35199,-0.59168 -4.49845,-4.23496 -5.12884,-8.70542 -0.77981,-5.53014 4.56495,-14.58503 10.25948,-17.38124 2.6832,-1.31753 6.36653,-2.12878 9.69079,-2.13438 3.07559,-0.005 4.82713,0.45648 6.23891,1.64442 1.38913,1.16887 1.3854,1.47681 -0.12995,10.7495 -0.66686,4.08062 -1.32683,8.70503 -1.4666,10.27646 -0.47967,5.39302 -1.85226,6.36407 -6.98042,4.93832 -2.0245,-0.56286 -2.26384,-0.5611 -4.14053,0.0305 -2.33299,0.73541 -6.56044,1.03025 -8.34284,0.58187 z m 7.75078,-7.12181 c 3.549,-2.57088 6.84373,-11.81904 4.90229,-13.76049 -1.95593,-1.95592 -6.62263,1.47624 -8.38524,6.16699 -1.06628,2.83765 -0.89307,6.95961 0.33421,7.95341 1.11047,0.8992 1.46681,0.85847 3.14874,-0.35991 z"
         id="path3356"
         style="fill:#045aa0;fill-opacity:1" />
      <path
         d="m 460.33136,862.78779 c -0.43051,-0.17341 -1.0566,-0.73323 -1.3913,-1.24405 -0.57036,-0.87048 -0.57197,-1.20227 -0.0257,-5.28707 0.66582,-4.97856 3.75782,-21.30784 4.90706,-25.9148 0.88313,-3.54021 1.8188,-5.58176 2.79849,-6.10608 0.84646,-0.45301 3.49123,-0.57217 4.6318,-0.20868 0.82366,0.2625 0.84549,0.36195 0.6586,2.99995 -0.37514,5.29533 -4.3848,25.66624 -6.39342,32.48154 -0.61905,2.10046 -0.9637,2.71076 -1.76474,3.125 -1.11128,0.57466 -2.24957,0.62597 -3.42081,0.15419 l 0,0 z"
         id="path3358"
         style="fill:#045aa0;fill-opacity:1" />
      <path
         d="m 480.25992,872.76137 c -0.81708,-0.32688 -0.8443,-0.44612 -0.62661,-2.74522 0.28683,-3.02941 5.05628,-29.2742 5.76659,-31.73178 0.29063,-1.00555 0.73094,-1.99233 0.97846,-2.19284 0.24752,-0.20051 4.09132,-0.56701 8.54178,-0.81444 l 8.09173,-0.44987 1.60277,0.93928 c 3.4452,2.01902 4.62917,4.70399 4.68076,10.61483 0.0329,3.76925 0.0281,3.79104 -1.51679,6.91077 -1.08954,2.20019 -2.21764,3.81074 -3.79867,5.42319 -2.87939,2.93664 -5.12288,3.96348 -9.69566,4.43765 -4.76725,0.49434 -5.40832,0.94303 -6.37178,4.45971 -1.07941,3.93991 -1.60798,5.09189 -2.43853,5.31457 -1.18742,0.31837 -4.24693,0.22105 -5.21405,-0.16585 z m 15.2832,-16.91619 c 1.26372,-0.6535 3.00912,-2.62969 4.04666,-4.58175 0.65153,-1.22582 0.80228,-2.08717 0.80576,-4.60415 0.004,-2.78848 -0.0818,-3.18783 -0.86154,-4.01786 -2.97264,-3.16423 -7.8391,2.34057 -8.78879,9.94164 -0.33915,2.71448 0.32567,3.77959 2.35915,3.77959 0.79095,0 1.88838,-0.23286 2.43876,-0.51747 z"
         id="path3360"
         style="fill:#045aa0;fill-opacity:1" />
      <path
         d="m 517.17134,862.76826 c -1.61824,-0.47057 -3.80084,-2.51041 -4.99718,-4.67032 -0.9591,-1.7316 -1.05887,-2.21996 -1.04765,-5.12815 0.0104,-2.70365 0.17306,-3.59867 1.02369,-5.63391 1.29287,-3.09335 3.33763,-6.25383 5.24145,-8.10142 4.72446,-4.58493 16.5608,-6.24466 20.19379,-2.83164 1.0583,0.99422 1.0832,2.13078 0.15355,7.0096 -0.3831,2.01052 -1.0313,5.86735 -1.44045,8.57072 -0.40915,2.70337 -0.9928,5.95987 -1.29702,7.23665 -0.9055,3.80042 -2.87035,4.87104 -5.57127,3.03572 -0.72268,-0.49107 -1.58429,-0.89286 -1.9147,-0.89286 -0.3304,0 -1.71458,0.40179 -3.07594,0.89286 -2.55469,0.92152 -5.2167,1.10932 -7.26827,0.51275 z m 7.36371,-7.72347 c 2.47016,-2.23164 4.61477,-7.42998 4.61477,-11.18575 0,-1.93012 -0.44979,-2.49639 -1.98289,-2.49639 -3.53905,0 -8.09157,6.99496 -7.56913,11.62999 0.40239,3.57001 2.35762,4.38269 4.93725,2.05215 z"
         id="path3362"
         style="fill:#045aa0;fill-opacity:1" />
      <path
         d="m 541.64982,862.43408 c -1.11047,-1.11047 -0.9063,-4.83287 0.74436,-13.57143 1.71007,-9.05305 2.87242,-12.70524 4.37956,-13.76088 1.05711,-0.74043 3.20191,-0.65975 4.21152,0.15844 0.75674,0.61326 0.83845,0.95175 0.79739,3.30357 -0.075,4.29393 -2.71336,17.26653 -4.4625,21.94153 -0.55724,1.48934 -0.9248,1.9476 -1.80952,2.25602 -1.6776,0.58481 -3.06647,0.46709 -3.86081,-0.32725 z"
         id="path3364"
         style="fill:#045aa0;fill-opacity:1" />
      <path
         d="m 548.0347,832.72411 c -2.77313,-2.24282 2.02588,-8.58716 6.54831,-8.65692 3.2359,-0.0499 3.59656,1.75358 0.92933,4.64719 -3.07767,3.33887 -6.22222,5.02507 -7.47764,4.00973 z"
         id="path3366"
         style="fill:#045aa0;fill-opacity:1" />
      <path
         d="m 556.74806,862.8016 c -2.49196,-0.59207 -3.97717,-2.30798 -3.5322,-4.08088 0.31479,-1.25422 1.15785,-1.61294 4.77418,-2.03144 4.23295,-0.48984 5.08836,-0.85364 5.08836,-2.16405 0,-0.80752 -0.62149,-1.6855 -2.81343,-3.97453 -3.32166,-3.46879 -4.32943,-5.18516 -4.32943,-7.37357 0,-4.5867 4.49694,-8.03908 11.07143,-8.49974 4.12386,-0.28895 6.66244,1.17888 6.36523,3.68043 -0.16868,1.41975 -1.55452,2.23085 -4.5189,2.64481 -5.20218,0.72644 -5.32709,1.65451 -0.81165,6.03056 1.74764,1.6937 3.45413,3.63051 3.79218,4.30402 1.52368,3.03561 -0.85677,8.51805 -4.51587,10.40055 -2.30988,1.18836 -7.74387,1.73528 -10.5699,1.06384 l 0,0 z"
         id="path3368"
         style="fill:#045aa0;fill-opacity:1" />
      <path
         d="m 579.55243,850.61407 c -1.6054,-1.49566 -1.60057,-1.9284 0.14083,-12.60708 0.90023,-5.52046 1.81173,-10.48674 2.02555,-11.03618 0.86298,-2.21754 5.16048,-2.91116 6.94992,-1.12172 0.84141,0.84141 0.8954,1.07839 0.67128,2.94642 -0.24396,2.03337 -3.40972,15.92723 -4.31278,18.92786 -0.97027,3.22395 -3.61705,4.62145 -5.4748,2.8907 z"
         id="path3370"
         style="fill:#045aa0;fill-opacity:1" />
      <path
         d="m 586.78341,620.65362 c -1.08567,-0.43841 -7.26959,-7.79482 -25.67324,-30.54097 -13.79618,-17.0515 -21.25624,-26.60973 -22.06095,-28.26567 -1.10292,-2.2696 -0.83236,-2.51133 3.20089,-2.85986 4.47015,-0.38628 53.19506,-0.39891 55.87763,-0.0145 3.29411,0.47207 3.30027,0.48397 2.6285,5.07726 -2.0367,13.92599 -9.07607,51.33323 -10.24757,54.45561 -0.45233,1.20558 -1.713,2.50512 -2.40324,2.47736 -0.30951,-0.0125 -0.90442,-0.16061 -1.32202,-0.32925 l 0,0 z"
         id="path3374"
         style="fill:#e9382b;fill-opacity:1" />
      <path
         d="m 577.53338,862.83327 c -1.10829,-0.36012 -1.94142,-1.23405 -2.27705,-2.38857 -0.31961,-1.09944 -0.23257,-1.84504 0.36858,-3.15719 1.41136,-3.08064 5.31315,-4.08862 7.3026,-1.88654 0.80497,0.891 1.07389,1.8819 0.97561,3.5949 -0.0962,1.67708 -0.60924,2.69638 -1.73891,3.45489 -0.70445,0.473 -0.96879,0.53965 -2.32143,0.58535 -0.97039,0.0328 -1.81167,-0.0411 -2.3094,-0.20284 z"
         id="path3376"
         style="fill:#045aa0;fill-opacity:1" />
    </g>
    <path
       d="m 289.00935,112.14334 c -1.04836,-0.22299 -1.564,-0.66414 -1.67351,-1.43174 -0.21702,-1.52105 1.47828,-11.435619 4.73189,-27.673407 4.04731,-20.198925 4.91423,-23.480083 6.58298,-24.915484 l 1.39178,-1.19716 12.1611,0.240322 c 13.51006,0.266979 15.9211,0.681477 21.2823,3.658793 6.69726,3.719283 10.28544,9.476946 10.69584,17.162766 0.4625,8.661509 -2.59474,16.257984 -9.15188,22.74008 -7.23258,7.14982 -15.678,10.53808 -28.34283,11.37099 -7.8602,0.51694 -15.36864,0.53599 -17.67767,0.0448 l 0,-1e-5 z"
       transform="translate(0,727.36215)"
       id="path3010"
       style="fill:#ffffff;fill-opacity:1" />
    <path
       d="m 415.49219,302.4214 c -1.63907,-3.06264 0.89749,-9.95819 4.57474,-12.43629 2.47141,-1.66548 3.26229,-1.33379 3.44324,1.44409 0.20695,3.17714 -1.58995,7.80069 -3.95665,10.18075 -2.14149,2.15357 -3.22697,2.37045 -4.06133,0.81145 z"
       transform="translate(0,727.36215)"
       id="path3012"
       style="fill:#ffffff;fill-opacity:1" />
    <path
       d="m 386.26387,302.54491 c -1.18933,-2.2223 1.11674,-9.27862 3.8032,-11.63736 2.05022,-1.80012 2.76018,-1.90348 3.9609,-0.5767 1.27518,1.40905 1.18176,6.61952 -0.15754,8.78655 -1.54816,2.50497 -3.2753,3.89342 -5.23973,4.2122 -1.48047,0.24025 -1.89117,0.10408 -2.36683,-0.78469 l 0,0 z"
       transform="translate(0,727.36215)"
       id="path3014"
       style="fill:#ffffff;fill-opacity:1" />
    <path
       d="m 334.32048,303.56999 c -1.66496,-1.029 -1.61871,-6.26906 0.0841,-9.52927 0.82504,-1.57961 3.05724,-3.773 4.69701,-4.61534 1.87982,-0.96566 2.68824,-0.22983 2.68824,2.44688 0,4.47835 -5.41895,12.96495 -7.46935,11.69773 z"
       transform="translate(0,727.36215)"
       id="path3016"
       style="fill:#ffffff;fill-opacity:1" />
    <path
       d="m 268.80105,292.41384 c -1.02326,-1.03724 1.66393,-3.40622 3.89875,-3.43706 2.23803,-0.0309 2.62722,1.93502 0.5825,2.94239 -1.03128,0.50807 -4.13052,0.85019 -4.48125,0.49467 z"
       transform="translate(0,727.36215)"
       id="path3018"
       style="fill:#ffffff;fill-opacity:1" />
    <path
       d="m 225.93768,303.358 c -1.28456,-0.67483 -1.55032,-2.2272 -0.90361,-5.27833 0.7926,-3.73941 2.93956,-7.39121 4.95954,-8.43579 1.00315,-0.51875 2.32156,-0.45909 3.08252,0.13948 1.71217,1.34679 1.94476,5.4242 0.47923,8.4011 -1.87541,3.80951 -5.51235,6.27954 -7.61768,5.17354 z"
       transform="translate(0,727.36215)"
       id="path3020"
       style="fill:#ffffff;fill-opacity:1" />
    <path
       d="m 190.38796,292.52833 c -0.5058,-0.51805 -0.3663,-1.45733 0.31809,-2.14171 1.38445,-1.38445 4.15574,-1.84483 5.06396,-0.84125 0.42885,0.47387 0.43826,0.58516 0.10147,1.19955 -0.71188,1.29863 -4.69275,2.59333 -5.48352,1.78341 z"
       transform="translate(0,727.36215)"
       id="path3022"
       style="fill:#ffffff;fill-opacity:1" />
    <path
       d="m 137.97407,303.41263 c -1.3791,-1.08479 -1.59495,-5.95744 -0.38134,-8.60831 0.78353,-1.71145 3.88134,-4.88607 5.44646,-5.5815 0.92867,-0.41264 1.16958,-0.43271 1.76546,-0.14711 1.12909,0.54116 1.3455,1.30909 0.95129,3.3757 -1.02055,5.3501 -3.30879,9.75343 -5.70328,10.97501 -1.20534,0.61492 -1.27995,0.61442 -2.07859,-0.0138 l 0,0 z"
       transform="translate(0,727.36215)"
       id="path3024"
       style="fill:#ffffff;fill-opacity:1" />
    <path
       d="m 72.853021,292.24289 c -0.429427,-0.55703 0.03165,-1.48552 1.134376,-2.28433 0.836438,-0.60591 1.405114,-0.80145 2.57742,-0.88625 1.425438,-0.10311 1.520006,-0.0741 1.806389,0.55446 0.680051,1.49255 -1.19436,2.91587 -3.853656,2.92625 -0.844906,0.003 -1.519851,-0.12245 -1.664529,-0.31013 z"
       transform="translate(0,727.36215)"
       id="path3026"
       style="fill:#ffffff;fill-opacity:1" />
  </g>
</svg>
