<?xml version="1.0" standalone="no"?>
<!DOCTYPE svg PUBLIC "-//W3C//DTD SVG 20010904//EN"
 "http://www.w3.org/TR/2001/REC-SVG-20010904/DTD/svg10.dtd">
<svg version="1.0" xmlns="http://www.w3.org/2000/svg"
 width="279.000000pt" height="248.000000pt" viewBox="0 0 279.000000 248.000000"
 preserveAspectRatio="xMidYMid meet">
<metadata>
Created by potrace 1.16, written by Peter Selinger 2001-2019
</metadata>
<g transform="translate(0.000000,248.000000) scale(0.100000,-0.100000)"
fill="#000000" stroke="none">
<path d="M1075 2350 c-120 -30 -187 -58 -271 -115 -272 -184 -410 -475 -382
-802 21 -249 190 -510 413 -640 215 -125 488 -149 723 -62 156 57 309 176 398
309 31 46 94 172 112 225 47 134 47 387 0 520 -89 254 -283 454 -523 540 -127
46 -343 57 -470 25z m165 -35 c0 -8 -7 -15 -16 -15 -12 0 -15 -6 -10 -22 3
-13 6 -38 6 -55 l0 -33 83 1 c92 0 168 -23 282 -85 67 -37 76 -41 73 -28 -1 4
3 17 10 28 9 18 9 24 -4 35 -13 10 -16 9 -21 -9 -5 -21 -32 -30 -46 -16 -3 4
5 22 20 40 21 28 23 37 13 49 -19 23 -29 18 -47 -24 -14 -33 -20 -38 -35 -30
-16 9 -16 11 4 45 20 34 20 38 5 49 -12 8 -13 15 -5 23 12 12 77 -19 91 -44 4
-7 14 -11 21 -8 20 8 29 -12 16 -35 -13 -25 3 -36 23 -16 9 8 20 15 26 15 23
0 18 -20 -19 -73 -51 -73 -40 -74 31 -4 32 32 56 30 77 -4 11 -18 11 -24 -4
-40 -20 -22 -40 -25 -47 -6 -4 9 -7 9 -18 -1 -12 -12 -11 -16 9 -29 25 -18 29
-33 7 -33 -22 0 -18 -16 6 -34 20 -13 25 -12 60 11 41 27 47 38 27 46 -7 2 -9
8 -5 13 13 13 39 -9 79 -67 49 -69 49 -95 3 -115 -19 -8 -35 -21 -35 -29 0
-18 13 -18 63 0 l39 13 14 -34 c8 -19 12 -39 9 -44 -9 -14 -59 -12 -73 2 -19
19 -24 3 -8 -27 18 -35 33 -45 69 -45 38 0 35 -25 -8 -52 -21 -14 -35 -31 -35
-43 0 -12 -5 -26 -12 -33 -24 -24 13 -13 44 13 24 20 33 23 44 14 18 -15 19
-72 2 -66 -7 2 -12 11 -10 21 4 21 -7 21 -24 -1 -22 -29 -16 -43 16 -43 23 0
30 -4 30 -20 0 -18 -5 -19 -46 -13 -49 6 -73 -9 -52 -34 7 -9 7 -13 -1 -13 -6
0 -11 5 -11 10 0 6 -7 10 -15 10 -8 0 -15 -8 -15 -19 0 -13 10 -20 33 -24 17
-4 42 -9 55 -13 18 -5 22 -3 20 12 -2 11 2 20 7 21 15 3 6 -78 -12 -105 -11
-18 -20 -22 -36 -17 -46 14 -97 15 -97 2 0 -21 43 -39 81 -35 33 3 35 0 31
-32 -1 -5 -9 -10 -17 -10 -9 0 -15 -9 -15 -25 0 -33 -11 -31 -32 5 -21 37 -67
51 -82 25 -73 -122 -149 -201 -253 -264 -87 -52 -165 -77 -264 -86 -97 -9
-105 -11 -89 -30 10 -12 8 -24 -9 -60 -12 -25 -26 -45 -32 -45 -6 0 -8 7 -5
16 17 45 18 64 2 64 -9 0 -16 8 -16 20 0 11 5 20 12 20 29 0 -5 12 -43 15 -24
2 -77 15 -118 30 -134 49 -240 131 -327 256 l-55 78 -39 -22 c-24 -12 -40 -28
-40 -39 0 -53 -53 17 -64 84 -5 32 -3 43 11 54 17 12 16 13 -9 14 -16 0 -28 5
-28 10 0 6 0 13 -1 17 0 4 19 15 43 24 l43 18 -51 0 c-52 1 -52 1 -56 36 -5
43 -3 45 38 45 25 0 33 -5 36 -20 2 -15 7 -17 18 -10 13 9 13 11 1 19 -8 5
-11 16 -7 26 5 14 9 15 21 5 12 -10 16 -9 21 5 10 25 -6 34 -71 37 l-60 3 3
35 c4 43 27 80 50 81 10 1 8 4 -8 8 -21 6 -25 13 -23 40 1 36 22 65 30 44 3
-7 13 -13 24 -13 13 0 19 -6 17 -16 -2 -10 2 -19 9 -21 8 -3 12 8 10 34 -2 31
-6 39 -24 41 -37 5 -46 26 -28 61 22 44 60 39 66 -8 2 -14 14 -27 27 -32 33
-12 28 9 -13 56 -20 22 -34 47 -32 55 3 16 48 20 105 8 43 -10 40 0 -13 42
-25 19 -45 39 -45 44 0 15 42 56 56 56 7 0 21 -10 31 -23 23 -30 76 -42 93
-22 10 12 10 15 -1 15 -7 0 -25 15 -39 32 -23 27 -30 31 -43 20 -12 -10 -17
-10 -23 -1 -9 15 82 99 106 99 9 0 25 -7 36 -15 26 -17 36 -10 28 21 -4 13 -4
31 0 39 6 17 36 9 36 -9 0 -18 43 -61 48 -48 2 6 -4 24 -12 41 -20 38 -20 61
-1 61 8 0 24 5 35 12 23 15 26 12 35 -29 5 -26 3 -33 -9 -33 -21 0 -20 -20 0
-35 15 -10 11 -15 -28 -33 -24 -12 -50 -22 -56 -22 -7 0 -12 -4 -12 -9 0 -5
-11 -11 -25 -13 -19 -2 -22 -6 -15 -18 8 -13 15 -12 47 7 21 13 64 35 95 50
61 30 74 43 33 35 -31 -5 -32 11 -2 31 20 13 21 17 10 48 -16 42 -3 58 29 37
33 -22 42 -21 43 4 0 17 8 24 30 29 57 12 95 10 95 -6z m140 -5 c19 -19 22
-19 36 -5 9 8 19 13 23 10 5 -2 20 -9 35 -15 15 -5 24 -15 21 -20 -5 -8 -11
-8 -20 0 -9 8 -15 8 -20 0 -3 -5 1 -13 9 -16 25 -10 19 -34 -8 -34 -16 0 -26
-7 -29 -22 -5 -18 -8 -19 -22 -8 -9 8 -35 13 -59 11 -44 -2 -58 7 -70 45 -9
28 28 74 60 74 13 0 33 -9 44 -20z"/>
<path d="M1150 2159 c-165 -43 -291 -120 -375 -230 -116 -153 -140 -222 -140
-404 0 -107 4 -142 23 -197 49 -147 155 -280 288 -360 262 -157 602 -97 801
142 104 125 160 289 150 440 -7 103 -27 181 -68 263 -46 95 -52 98 -84 43
l-27 -47 7 -224 c6 -181 5 -228 -6 -241 -7 -9 -12 -33 -10 -54 1 -23 -4 -49
-14 -64 -9 -14 -14 -30 -10 -36 23 -37 -139 -180 -204 -180 -33 0 -126 -38
-170 -70 -22 -17 -43 -30 -45 -30 -2 0 -30 18 -62 39 -33 22 -84 47 -114 56
-30 9 -73 24 -95 33 -51 21 -145 115 -145 145 0 12 -7 35 -15 50 -8 16 -16 44
-18 62 -2 19 -9 41 -16 49 -11 13 -10 51 2 208 16 201 12 279 -17 323 -19 28
-14 32 100 98 l80 47 59 -21 c73 -26 124 -20 189 21 55 35 58 36 81 10 10 -11
43 -29 73 -40 49 -19 62 -20 104 -10 26 7 51 16 54 21 9 15 54 10 82 -9 47
-32 133 -74 139 -69 11 12 -41 69 -101 112 -77 55 -177 102 -253 121 -65 15
-190 17 -243 3z"/>
<path d="M1039 509 c-11 -6 -11 -11 -1 -21 13 -13 18 -264 4 -284 -4 -6 -14
-14 -22 -17 -8 -3 14 -6 50 -6 62 -1 64 0 41 15 -21 15 -23 23 -21 93 6 171 1
218 -19 224 -10 2 -25 1 -32 -4z"/>
<path d="M1423 498 c-20 -26 -22 -58 -4 -68 17 -9 47 -84 42 -107 -1 -7 7 -25
18 -40 29 -42 34 -69 16 -87 -15 -15 -12 -16 41 -16 l57 0 -20 22 c-11 13 -46
87 -78 166 -32 78 -59 142 -60 142 -1 0 -7 -6 -12 -12z"/>
<path d="M1662 477 c-53 -56 -66 -143 -31 -213 28 -59 72 -84 140 -82 46 1 48
2 15 5 -21 3 -50 12 -63 20 -63 42 -82 161 -39 246 25 51 15 63 -22 24z"/>
</g>
</svg>
